<svg transform="scale(1)" id="_0278_alien_1" data-name="0278_alien_1" xmlns="http://www.w3.org/2000/svg" xmlns:xlink="http://www.w3.org/1999/xlink" viewBox="0 0 500 500" class="show_show__wrapper__graphic__5Waiy "><title>React</title><defs><style>
      .cls-1 {
        fill: url(#linear-gradient-38);
      }

      .cls-1, .cls-2, .cls-3, .cls-4, .cls-5, .cls-6, .cls-7, .cls-8, .cls-9, .cls-10, .cls-11, .cls-12, .cls-13, .cls-14, .cls-15, .cls-16, .cls-17, .cls-18, .cls-19, .cls-20, .cls-21, .cls-22, .cls-23, .cls-24, .cls-25, .cls-26, .cls-27, .cls-28, .cls-29, .cls-30, .cls-31, .cls-32, .cls-33, .cls-34, .cls-35, .cls-36, .cls-37, .cls-38, .cls-39, .cls-40, .cls-41, .cls-42, .cls-43, .cls-44, .cls-45, .cls-46, .cls-47, .cls-48 {
        stroke-width: 0px;
      }

      .cls-2 {
        fill: url(#linear-gradient-12);
      }

      .cls-3 {
        fill: url(#linear-gradient-17);
      }

      .cls-4 {
        fill: url(#linear-gradient-41);
      }

      .cls-4, .cls-10, .cls-11, .cls-18, .cls-34, .cls-37, .cls-44 {
        isolation: isolate;
      }

      .cls-4, .cls-18, .cls-34 {
        opacity: .45;
      }

      .cls-5 {
        fill: url(#linear-gradient-19);
      }

      .cls-6 {
        fill: url(#linear-gradient-33);
      }

      .cls-7 {
        fill: url(#linear-gradient);
      }

      .cls-49 {
        stroke: #fff;
        stroke-miterlimit: 10;
        stroke-width: 1.03px;
      }

      .cls-49, .cls-15 {
        fill: none;
      }

      .cls-8 {
        fill: url(#linear-gradient-21);
      }

      .cls-9 {
        fill: url(#linear-gradient-6);
      }

      .cls-10 {
        opacity: .48;
      }

      .cls-10, .cls-37, .cls-47 {
        fill: #ac8b46;
      }

      .cls-11 {
        fill: url(#linear-gradient-26);
      }

      .cls-11, .cls-37 {
        opacity: .36;
      }

      .cls-12 {
        fill: url(#linear-gradient-15);
      }

      .cls-13 {
        fill: url(#linear-gradient-11);
      }

      .cls-14 {
        fill: url(#linear-gradient-5);
      }

      .cls-16 {
        fill: url(#linear-gradient-31);
      }

      .cls-17 {
        fill: url(#linear-gradient-34);
      }

      .cls-18 {
        fill: url(#linear-gradient-42);
      }

      .cls-19 {
        fill: url(#linear-gradient-40);
      }

      .cls-20 {
        fill: url(#linear-gradient-13);
      }

      .cls-21 {
        fill: url(#linear-gradient-23);
      }

      .cls-22 {
        fill: url(#linear-gradient-25);
      }

      .cls-23 {
        fill: url(#linear-gradient-43);
      }

      .cls-24 {
        fill: url(#linear-gradient-16);
      }

      .cls-25 {
        fill: url(#linear-gradient-22);
      }

      .cls-26 {
        fill: url(#linear-gradient-35);
      }

      .cls-27 {
        fill: url(#linear-gradient-32);
      }

      .cls-28 {
        fill: url(#linear-gradient-20);
      }

      .cls-29 {
        fill: url(#linear-gradient-14);
      }

      .cls-30 {
        fill: url(#linear-gradient-2);
      }

      .cls-31 {
        fill: url(#linear-gradient-7);
      }

      .cls-32 {
        fill: url(#linear-gradient-39);
      }

      .cls-33 {
        fill: url(#linear-gradient-3);
      }

      .cls-34 {
        fill: #fff;
      }

      .cls-35 {
        fill: url(#linear-gradient-9);
      }

      .cls-36 {
        fill: url(#linear-gradient-27);
      }

      .cls-38 {
        fill: url(#linear-gradient-36);
      }

      .cls-39 {
        fill: url(#linear-gradient-8);
      }

      .cls-40 {
        fill: url(#linear-gradient-24);
      }

      .cls-41 {
        fill: url(#linear-gradient-18);
      }

      .cls-42 {
        fill: url(#linear-gradient-30);
      }

      .cls-43 {
        fill: url(#linear-gradient-29);
      }

      .cls-44 {
        fill: url(#linear-gradient-10);
        opacity: .23;
      }

      .cls-45 {
        fill: url(#linear-gradient-28);
      }

      .cls-46 {
        fill: url(#linear-gradient-4);
      }

      .cls-48 {
        fill: url(#linear-gradient-37);
      }
    </style><linearGradient id="linear-gradient" x1="324.08" y1="1515.33" x2="317.34" y2="1911.87" gradientTransform="translate(-53.79 1984.05) scale(1 -1)" gradientUnits="userSpaceOnUse"><stop offset="0" stop-color="#fff" stop-opacity="0"></stop><stop offset=".95" stop-color="#fff"></stop></linearGradient><linearGradient id="linear-gradient-2" x1="621.21" y1="1629.51" x2="619.69" y2="1615.54" gradientTransform="translate(48.45 1887.46) rotate(-13.63) scale(1 -1)" gradientUnits="userSpaceOnUse"><stop offset="0" stop-color="#010101" stop-opacity="0"></stop><stop offset=".95" stop-color="#010101"></stop></linearGradient><linearGradient id="linear-gradient-3" x1="379.87" y1="1877.96" x2="293.65" y2="1854.3" xlink:href="#linear-gradient"></linearGradient><linearGradient id="linear-gradient-4" x1="321.81" y1="1865.59" x2="321.39" y2="1803.93" gradientTransform="translate(-53.79 1984.05) scale(1 -1)" xlink:href="#linear-gradient-2"></linearGradient><linearGradient id="linear-gradient-5" x1="336.03" y1="1858.56" x2="298.51" y2="1850.34" gradientTransform="translate(-53.79 1984.05) scale(1 -1)" xlink:href="#linear-gradient-2"></linearGradient><linearGradient id="linear-gradient-6" x1="325.77" y1="1865.36" x2="322.12" y2="1861.79" gradientTransform="translate(-1019.29 1504.98) rotate(33.14) scale(1 -1)" xlink:href="#linear-gradient-2"></linearGradient><linearGradient id="linear-gradient-7" x1="334.61" y1="1865.3" x2="333.16" y2="1861.66" gradientTransform="translate(-1461.7 861.03) rotate(56.86) scale(1 -1)" xlink:href="#linear-gradient-2"></linearGradient><linearGradient id="linear-gradient-8" x1="324.88" y1="1841.8" x2="327.68" y2="1883.28" gradientTransform="translate(-53.79 1984.05) scale(1 -1)" xlink:href="#linear-gradient-2"></linearGradient><linearGradient id="linear-gradient-9" x1="327.11" y1="1853.81" x2="330.77" y2="1853.81" gradientTransform="translate(-53.79 1984.05) scale(1 -1)" xlink:href="#linear-gradient-2"></linearGradient><linearGradient id="linear-gradient-10" x1="375.15" y1="1876.1" x2="297.61" y2="1854.81" xlink:href="#linear-gradient"></linearGradient><linearGradient id="linear-gradient-11" x1="323.1" y1="1869.2" x2="324.23" y2="1769.92" gradientTransform="translate(-53.79 1984.05) scale(1 -1)" xlink:href="#linear-gradient-2"></linearGradient><linearGradient id="linear-gradient-12" x1="483.17" y1="1753.12" x2="481.83" y2="1740.81" gradientTransform="translate(-1596.9 91.57) rotate(76.37) scale(1 -1)" xlink:href="#linear-gradient-2"></linearGradient><linearGradient id="linear-gradient-13" x1="581.87" y1="1733.9" x2="580.53" y2="1721.58" gradientTransform="translate(-1500.93 -9.45) rotate(76.37) scale(1 -1)" xlink:href="#linear-gradient-2"></linearGradient><linearGradient id="linear-gradient-14" x1="312.85" y1="1816.24" x2="341.11" y2="1876.55" gradientTransform="translate(-53.79 1984.05) scale(1 -1)" xlink:href="#linear-gradient-2"></linearGradient><linearGradient id="linear-gradient-15" x1="550.35" y1="1730.11" x2="548.96" y2="1717.41" gradientTransform="translate(95.9 1941.39) rotate(-13.63) scale(1 -1)" xlink:href="#linear-gradient-2"></linearGradient><linearGradient id="linear-gradient-16" x1="570.2" y1="1750.42" x2="568.82" y2="1737.72" gradientTransform="translate(-1522.01 -8.81) rotate(76.37) scale(1 -1)" xlink:href="#linear-gradient-2"></linearGradient><linearGradient id="linear-gradient-17" x1="591.27" y1="1721.01" x2="589.88" y2="1708.31" gradientTransform="translate(95.86 1940.56) rotate(-13.63) scale(1 -1)" xlink:href="#linear-gradient-2"></linearGradient><linearGradient id="linear-gradient-18" x1="464.41" y1="1764.79" x2="462.87" y2="1750.82" gradientTransform="translate(-1624.06 105.18) rotate(76.37) scale(1 -1)" xlink:href="#linear-gradient-2"></linearGradient><linearGradient id="linear-gradient-19" x1="604.36" y1="1736.12" x2="602.84" y2="1722.15" gradientTransform="translate(-1486.33 -37.03) rotate(76.37) scale(1 -1)" xlink:href="#linear-gradient-2"></linearGradient><linearGradient id="linear-gradient-20" x1="471.39" y1="1645.53" x2="450.32" y2="1640.91" gradientTransform="translate(52.26 1965.87) rotate(-8.7) scale(1 -1)" xlink:href="#linear-gradient-2"></linearGradient><linearGradient id="linear-gradient-21" x1="465.62" y1="1649.42" x2="463.57" y2="1647.41" gradientTransform="translate(-1027.55 1393.21) rotate(33.14) scale(1 -1)" xlink:href="#linear-gradient-2"></linearGradient><linearGradient id="linear-gradient-22" x1="470.57" y1="1649.4" x2="469.76" y2="1647.35" gradientTransform="translate(-1368.83 773.58) rotate(56.86) scale(1 -1)" xlink:href="#linear-gradient-2"></linearGradient><linearGradient id="linear-gradient-23" x1="465.12" y1="1636.2" x2="466.69" y2="1659.47" gradientTransform="translate(52.26 1965.87) rotate(-8.7) scale(1 -1)" xlink:href="#linear-gradient-2"></linearGradient><linearGradient id="linear-gradient-24" x1="466.37" y1="1642.95" x2="468.43" y2="1642.95" gradientTransform="translate(52.26 1965.87) rotate(-8.7) scale(1 -1)" xlink:href="#linear-gradient-2"></linearGradient><linearGradient id="linear-gradient-25" x1="456.82" y1="1625.99" x2="473.89" y2="1625.99" gradientTransform="translate(52.26 1965.87) rotate(-8.7) scale(1 -1)" xlink:href="#linear-gradient-2"></linearGradient><linearGradient id="linear-gradient-26" x1="649.84" y1="1558.61" x2="577.84" y2="1325.75" gradientTransform="translate(-1382.85 454.32) rotate(60.74) scale(1 -1)" xlink:href="#linear-gradient-2"></linearGradient><linearGradient id="linear-gradient-27" x1="651.4" y1="1558.12" x2="579.41" y2="1325.26" gradientTransform="translate(184.69 1920.74) rotate(-20.04) scale(1 -1)" xlink:href="#linear-gradient-2"></linearGradient><linearGradient id="linear-gradient-28" x1="478.37" y1="1683.99" x2="406.37" y2="1451.13" gradientTransform="translate(52.26 1965.87) rotate(-8.7) scale(1 -1)" xlink:href="#linear-gradient-2"></linearGradient><linearGradient id="linear-gradient-29" x1="649.26" y1="1558.79" x2="577.26" y2="1325.93" gradientTransform="translate(-899.22 1447.22) rotate(21.8) scale(1 -1)" xlink:href="#linear-gradient-2"></linearGradient><linearGradient id="linear-gradient-30" x1="654.99" y1="1557.15" x2="582.99" y2="1324.28" gradientTransform="translate(-1273.59 874.21) rotate(45.53) scale(1 -1)" xlink:href="#linear-gradient-2"></linearGradient><linearGradient id="linear-gradient-31" x1="470.52" y1="1682.69" x2="398.53" y2="1449.83" gradientTransform="translate(-1029.77 1397.02) rotate(33.22) scale(1 -1)" xlink:href="#linear-gradient-2"></linearGradient><linearGradient id="linear-gradient-32" x1="481.41" y1="1683.05" x2="409.42" y2="1450.19" gradientTransform="translate(-1369.27 772.36) rotate(56.86) scale(1 -1)" xlink:href="#linear-gradient-2"></linearGradient><linearGradient id="linear-gradient-33" x1="478.68" y1="1683.9" x2="406.68" y2="1451.04" gradientTransform="translate(52.26 1965.87) rotate(-8.7) scale(1 -1)" xlink:href="#linear-gradient-2"></linearGradient><linearGradient id="linear-gradient-34" x1="480.48" y1="1683.33" x2="408.49" y2="1450.47" gradientTransform="translate(52.26 1965.87) rotate(-8.7) scale(1 -1)" xlink:href="#linear-gradient-2"></linearGradient><linearGradient id="linear-gradient-35" x1="654.61" y1="1557.13" x2="582.61" y2="1324.27" gradientTransform="translate(184.69 1920.74) rotate(-20.04) scale(1 -1)" xlink:href="#linear-gradient-2"></linearGradient><linearGradient id="linear-gradient-36" x1="651.87" y1="1557.98" x2="579.88" y2="1325.11" gradientTransform="translate(184.69 1920.74) rotate(-20.04) scale(1 -1)" xlink:href="#linear-gradient-2"></linearGradient><linearGradient id="linear-gradient-37" x1="481.55" y1="1683.01" x2="409.55" y2="1450.15" gradientTransform="translate(52.26 1965.87) rotate(-8.7) scale(1 -1)" xlink:href="#linear-gradient-2"></linearGradient><linearGradient id="linear-gradient-38" x1="664.86" y1="1553.96" x2="592.87" y2="1321.1" gradientTransform="translate(184.69 1920.74) rotate(-20.04) scale(1 -1)" xlink:href="#linear-gradient-2"></linearGradient><linearGradient id="linear-gradient-39" x1="652.92" y1="1557.65" x2="580.92" y2="1324.79" gradientTransform="translate(184.69 1920.74) rotate(-20.04) scale(1 -1)" xlink:href="#linear-gradient-2"></linearGradient><linearGradient id="linear-gradient-40" x1="662.12" y1="1554.81" x2="590.13" y2="1321.95" gradientTransform="translate(184.69 1920.74) rotate(-20.04) scale(1 -1)" xlink:href="#linear-gradient-2"></linearGradient><linearGradient id="linear-gradient-41" x1="643.95" y1="1560.43" x2="571.95" y2="1327.57" gradientTransform="translate(184.69 1920.74) rotate(-20.04) scale(1 -1)" xlink:href="#linear-gradient-2"></linearGradient><linearGradient id="linear-gradient-42" x1="643.14" y1="1560.68" x2="571.15" y2="1327.82" gradientTransform="translate(184.69 1920.74) rotate(-20.04) scale(1 -1)" xlink:href="#linear-gradient-2"></linearGradient><linearGradient id="linear-gradient-43" x1="650.67" y1="1558.35" x2="578.67" y2="1325.49" gradientTransform="translate(184.69 1920.74) rotate(-20.04) scale(1 -1)" xlink:href="#linear-gradient-2"></linearGradient></defs><g id="background"><path class="cls-10" d="m425.76,358.46c-24.87,17.23-56.07,27.1-75.66,50.76-2.16,2.58-4.31,5.09-6.44,7.46-14.29,15.77-29.25,26.19-53.28,28.68-16.87,1.72-33.77-2.13-50.28-5.94-15.22-3.51-30.03-9.23-44.8-15.07-25.32-10.01-50.49-20.35-77.31-20.35l-47.28-40.48c-11.54-19.93-22.99-41.6-28.02-64.07-5.03-22.47-2.37-47.84,12.4-65.56,16.18-19.36,44.05-26.71,58.4-47.39,15.59-22.47,10.49-53.24,19.93-78.93,10.64-28.83,39.01-48.19,68.71-56s61.01-5.88,91.66-3.75c23.74,1.62,47.95,3.45,70,12.35,23.11,9.35,42.59,25.95,60.41,43.4,14.86,14.56,30.05,33.32,26.13,53.75-2.33,12.26-11.33,22.4-14.05,34.58-6.71,30.21,25.85,54.66,32.57,84.83,7.13,31.95-16.21,63.08-43.09,81.71Z"></path></g><g id="ufo"><path class="cls-7" d="m343.65,416.72c-14.29,15.77-29.25,26.19-53.28,28.68-16.87,1.72-33.77-2.13-50.28-5.94-15.22-3.51-30.03-9.23-44.8-15.07l58.53-258.16,29.54-2.94,60.29,253.42Z"></path><ellipse class="cls-47" cx="268.62" cy="160.9" rx="7.38" ry="4.18" transform="translate(-9.07 16.21) rotate(-3.4)"></ellipse><ellipse class="cls-30" cx="268.62" cy="160.9" rx="7.38" ry="4.18" transform="translate(-9.07 16.21) rotate(-3.4)"></ellipse><path class="cls-47" d="m306.3,132.87c0,3.15-.38,6.28-1.14,9.34-12.17,1.44-24.42,2.13-36.68,2.07-12.76.07-25.51-.69-38.17-2.26-5.04-20.68,7.65-41.53,28.33-46.56,20.68-5.04,41.53,7.65,46.56,28.33.73,2.98,1.09,6.04,1.09,9.11v-.03Z"></path><path class="cls-33" d="m306.47,132.41v.41c-.06,5.22-4.08,9.53-9.28,9.96-8.56.78-18.25,1.21-28.53,1.21-10.88,0-21.11-.49-30.02-1.34-4.46-.4-8.13-3.67-9.05-8.06-.13-.63-.2-1.26-.2-1.9v-.09c.26-21.28,17.73-38.32,39.01-38.06,20.84.26,37.7,17.04,38.05,37.87h0Z"></path><path class="cls-47" d="m306.47,132.41v.41c-.06,5.22-4.08,9.53-9.28,9.96-5.9.53-12.35.86-19.14,1.08h0c-3.06.09-6.18.13-9.37.13-2.89,0-5.73,0-8.51-.1-7.71-.18-14.96-.62-21.54-1.24-4.46-.4-8.13-3.67-9.05-8.06l-.2-2s9.93-5.51,37.5-5.17h.59c3.72.05,7.75.22,12.11.53,7.46.5,15.9,1.39,25.4,2.82l1.48,1.65Z"></path><path class="cls-46" d="m306.47,132.41v.41c-.06,5.22-4.08,9.53-9.28,9.96-5.9.53-12.35.86-19.14,1.08h0c-3.06.09-6.18.13-9.37.13-2.89,0-5.73,0-8.51-.1-7.71-.18-14.96-.62-21.54-1.24-4.46-.4-8.13-3.67-9.05-8.06l-.2-2s9.93-5.51,37.5-5.17h.59c3.72.05,7.75.22,12.11.53,7.46.5,15.9,1.39,25.4,2.82l1.48,1.65Z"></path><path class="cls-47" d="m282.02,125.07c-.53.89-1.19,1.69-1.95,2.4-.16.15-.31.32-.45.49-.36.39-.71.78-1.03,1.2-.15.17-.29.35-.41.53-.14.17-.27.35-.4.53-.17.25-.34.49-.5.74-.03.03-.05.06-.07.09-.08.1-.15.21-.22.32-.75,1.1-1.3,2.32-1.62,3.61-.05.22-.09.44-.12.66v.08c-.03.22-.05.44-.04.65,0,.86.21,1.71.62,2.46.16.28.34.55.53.81.19.26.39.51.56.79.24.4.44.82.59,1.27.1.28.19.57.26.86.09.41.19.86.27,1.24,0,.05,0,.09,0,.14h0s0-.09,0-.14c-3.06.09-6.18.13-9.37.13-2.89,0-5.73,0-8.51-.1,0-.07.05-.13.07-.18.57-1.11,1.47-2.01,2.58-2.58.91-.47,1.93-.72,2.89-1.1.22-.08.43-.17.63-.28.41-.2.81-.43,1.19-.67h0c.43-.29.83-.6,1.21-.95.12-.11.25-.23.36-.35s.24-.25.35-.39c.22-.27.42-.56.59-.86.08-.15.15-.31.22-.47.36-1.05.32-2.2-.09-3.23-.08-.22-.17-.43-.26-.64s-.21-.41-.32-.62-.23-.4-.35-.6-.24-.39-.35-.57h0l-.29-.45c-.55-.86-1.09-1.66-1.65-2.47-.08-.13-.16-.24-.25-.37s0,0,0-.07c-.26-.39-.53-.78-.78-1.15-.24-.33-.5-.65-.77-.96-.42-.44-.81-.89-1.18-1.37-.24-.34-.44-.72-.59-1.11-.08-.2-.14-.4-.19-.61-.15-.63-.21-1.29-.16-1.94h0c0-.33.09-.65.14-.96.04-.16.08-.32.13-.48.19-.64.45-1.25.78-1.84.55-.97,1.21-1.88,1.98-2.69.53-.61,1.1-1.16,1.72-1.67.32-.25.65-.48,1-.68.17-.11.36-.2.54-.28l.54-.23c.44-.16.86-.29,1.23-.39,1.4-.4,2.91.02,3.91,1.09l3.02,2.8c.99.94,1.99,1.88,2.97,2.83.11.1.22.21.32.32.34.3.61.67.81,1.09.05.11.1.22.13.34.09.36.15.72.18,1.09.22,1.64.33,3.39-.41,4.89Z"></path><path class="cls-14" d="m282.02,125.07c-.53.89-1.19,1.69-1.95,2.4-.16.15-.31.32-.45.49-.36.39-.71.78-1.03,1.2-.15.18-.28.35-.41.53s-.28.35-.4.53-.34.49-.5.74c-.03.03-.05.06-.07.09-.08.1-.15.21-.22.32-.75,1.1-1.3,2.32-1.62,3.61,0,.16-.06.3-.09.45h0c0,.06,0,.11,0,.17v.08c-.03.22-.05.44-.04.65,0,.86.21,1.71.62,2.46.16.28.34.55.53.81.19.26.4.51.57.79.24.4.43.82.58,1.27.1.28.19.57.26.86.09.41.18.86.26,1.24-3.06.09-6.18.13-9.37.13-2.89,0-5.73,0-8.51-.1,0-.07.05-.13.07-.18.57-1.11,1.47-2.01,2.58-2.58.91-.47,1.93-.72,2.89-1.1.22-.08.43-.17.63-.28.41-.19.81-.42,1.19-.67h0c.43-.28.84-.6,1.21-.95.12-.11.25-.23.36-.35s.24-.25.35-.39c.23-.27.43-.56.59-.86.08-.15.15-.31.22-.47.36-1.05.32-2.2-.09-3.23-.08-.22-.17-.43-.26-.64s-.21-.42-.32-.62-.23-.4-.35-.6-.24-.39-.35-.57h0l-.29-.45c-.55-.86-1.09-1.66-1.65-2.47h0s-.16-.24-.24-.37,0,0,0-.07c-.26-.39-.53-.78-.78-1.15-.24-.33-.5-.65-.77-.96-.42-.44-.81-.89-1.18-1.37-.24-.34-.44-.72-.59-1.11-.29-.83-.41-1.71-.34-2.58h0c0-.33.09-.65.14-.96.04-.16.08-.32.13-.48.18-.64.44-1.26.78-1.84.55-.97,1.21-1.88,1.98-2.69.53-.61,1.1-1.16,1.72-1.67.32-.25.65-.48,1-.68.17-.11.36-.2.54-.28.18-.09.36-.17.54-.24l.28-.09c.34-.11.65-.22.96-.29,1.4-.4,2.91.02,3.91,1.09l3.02,2.8,2.97,2.82h0c.11.1.22.2.32.32.34.3.61.67.81,1.09.05.11.1.22.13.34.09.36.15.72.18,1.09.19,1.72.3,3.48-.44,4.98Z"></path><ellipse class="cls-47" cx="268.5" cy="122.08" rx="2.8" ry="3.51" transform="translate(-23.07 166.64) rotate(-33.14)"></ellipse><ellipse class="cls-47" cx="279.45" cy="122.21" rx="3.51" ry="2.33" transform="translate(24.35 289.4) rotate(-56.86)"></ellipse><ellipse class="cls-9" cx="268.5" cy="122.08" rx="2.8" ry="3.51" transform="translate(-23.07 166.64) rotate(-33.14)"></ellipse><ellipse class="cls-31" cx="279.45" cy="122.21" rx="3.51" ry="2.33" transform="translate(24.35 289.4) rotate(-56.86)"></ellipse><path class="cls-39" d="m277.28,131.01l-.28.41c-.75,1.1-1.3,2.32-1.63,3.61-.03.15-.06.3-.08.46h0c-.31,1.61-.21,3.33-.97,4.84-.1.25-.3.44-.55.53-.48.13-.86-.33-1.06-.74-.32-1.02-.51-2.07-.55-3.14-.36-2.51-1.52-4.83-3.3-6.63l-.29-.46-1.89-2.83v-.06c1.32.58,3.88,2.23,4.31,2.48,1.09.6,2.4,3.02,3.65,3.32.89.22,1.59-.56,2.64-1.8Z"></path><path class="cls-35" d="m275.29,130.15c.07.01.13.01.2,0,.05-.02.11-.04.16-.07.39-.17.82-.22,1.25-.17.02,0,.05,0,.07,0,.04.04,0,.11-.08.13-.41.1-.81.22-1.2.36-.11.09-.24.16-.38.19-.11,0-.22-.01-.33-.06-.28-.09-.57-.11-.86-.09-.23.03-.46.03-.69,0-.05,0-.12-.04-.11-.1s.06-.07.11-.08c.6-.19,1.24-.23,1.86-.11Z"></path><path class="cls-44" d="m303.86,132.25v.21c-.07,4.69-3.68,8.56-8.36,8.95-7.69.69-16.41,1.08-25.65,1.08-9.79,0-18.95-.43-27-1.2-4.66-.41-8.24-4.29-8.31-8.96v-.08c-.3-19.14,14.97-34.9,34.11-35.2,19.14-.3,34.9,14.97,35.2,34.11,0,.36,0,.73,0,1.09Z"></path><path class="cls-47" d="m352.54,134.76c0-9.71-37.1-17.58-82.85-17.58s-82.86,7.87-82.86,17.58c0,.9-.54,6.68.09,7.55,6.03,8.43,41.3,10.03,82.77,10.03s74.69-1.94,82.42-9.95c1.1-1.15.43-6.42.43-7.62Z"></path><path class="cls-13" d="m352.54,134.86c0-9.71-37.1-17.58-82.85-17.58s-82.86,7.87-82.86,17.58c0,.74-.53,6.38-.1,7.1,5.07,8.67,40.69,10.48,82.96,10.48s76.68-1.44,82.53-9.93c.57-.84.32-6.78.32-7.65Z"></path><path class="cls-47" d="m352.54,141.3c0,5.22-13.5,9.85-34.26,12.69-16.1,2.07-32.33,3.07-48.57,2.98-16.91.1-33.81-.98-50.57-3.25-19.63-2.87-32.27-7.36-32.27-12.42s12.51-9.48,31.97-12.36c16.84-2.3,33.83-3.4,50.83-3.3,16.35-.09,32.69.92,48.9,3.02,20.6,2.85,33.96,7.46,33.96,12.65Z"></path><path class="cls-49" d="m339.91,141.42c0,3.37-11.76,6.36-29.84,8.19-11.89,1.21-26.51,1.92-42.32,1.92-14.7.06-29.4-.63-44.03-2.09-17.09-1.85-28.1-4.76-28.1-8.02s10.89-6.13,27.84-7.98c14.72-1.49,29.51-2.2,44.3-2.13,15.93,0,30.65.72,42.59,1.95,17.96,1.84,29.57,4.81,29.57,8.16Z"></path><ellipse class="cls-47" cx="217.66" cy="148.41" rx="3.68" ry="6.51" transform="translate(60.72 359.99) rotate(-87.72)"></ellipse><ellipse class="cls-2" cx="217.66" cy="148.41" rx="3.68" ry="6.51" transform="translate(60.72 359.99) rotate(-87.72)"></ellipse><ellipse class="cls-47" cx="318.22" cy="147.83" rx="3.68" ry="6.51" transform="translate(157.84 459.92) rotate(-87.72)"></ellipse><ellipse class="cls-20" cx="318.22" cy="147.83" rx="3.68" ry="6.51" transform="translate(157.84 459.92) rotate(-87.72)"></ellipse><path class="cls-47" d="m321.48,142.27v.27c0,5.09-2.25,9.89-6.23,14.05-8.72,9.12-25.62,15.31-45.04,15.31s-35.5-5.9-44.38-14.65c-4.4-4.31-6.89-9.35-6.89-14.72v-.96l4.52-.54c14.72-1.49,29.5-2.2,44.29-2.13,15.94,0,30.65.72,42.58,1.95,4.05.42,7.8.87,11.15,1.41Z"></path><path class="cls-29" d="m321.48,142.27v.27c0,5.09-2.25,9.89-6.23,14.05-8.72,9.12-25.62,15.31-45.04,15.31s-35.5-5.9-44.38-14.65c-4.4-4.31-6.89-9.35-6.89-14.72v-.96l4.52-.54c14.72-1.49,29.5-2.2,44.29-2.13,15.94,0,30.65.72,42.58,1.95,4.05.42,7.8.87,11.15,1.41Z"></path><ellipse class="cls-47" cx="223.45" cy="133.46" rx="6.71" ry="3.8" transform="translate(-2.59 4.43) rotate(-1.13)"></ellipse><ellipse class="cls-12" cx="223.45" cy="133.46" rx="6.71" ry="3.8" transform="translate(-2.59 4.43) rotate(-1.13)"></ellipse><ellipse class="cls-47" cx="310.34" cy="133.25" rx="3.8" ry="6.71" transform="translate(162.88 437.1) rotate(-87.35)"></ellipse><ellipse class="cls-24" cx="310.34" cy="133.25" rx="3.8" ry="6.71" transform="translate(162.88 437.1) rotate(-87.35)"></ellipse><ellipse class="cls-47" cx="265.33" cy="131.82" rx="6.71" ry="3.8" transform="translate(-2.55 5.26) rotate(-1.13)"></ellipse><ellipse class="cls-3" cx="265.33" cy="131.82" rx="6.71" ry="3.8" transform="translate(-2.55 5.26) rotate(-1.13)"></ellipse><ellipse class="cls-47" cx="197.01" cy="141.09" rx="4.18" ry="7.38" transform="translate(48.19 332.32) rotate(-87.72)"></ellipse><ellipse class="cls-41" cx="197.01" cy="141.09" rx="4.18" ry="7.38" transform="translate(48.19 332.32) rotate(-87.72)"></ellipse><ellipse class="cls-47" cx="339.87" cy="141.64" rx="4.18" ry="7.38" transform="translate(184.81 475.6) rotate(-87.72)"></ellipse><ellipse class="cls-5" cx="339.87" cy="141.64" rx="4.18" ry="7.38" transform="translate(184.81 475.6) rotate(-87.72)"></ellipse></g><g id="alien"><circle class="cls-37" cx="261.99" cy="267.26" r="13.15"></circle><path class="cls-47" d="m259.29,262.83c-.59.81-.98,1.75-1.15,2.74-.15,1,.14,2.03.81,2.79.24.23.5.45.77.65.38.33.74.69,1.07,1.07l1.28,1.41c.43.44.82.93,1.14,1.46.32.54.43,1.17.33,1.78-.1.38-.27.73-.51,1.04-.46.63-1.05,1.15-1.72,1.54-.52.26-1.02.55-1.51.86-.57.42-.99,1.01-1.21,1.68-.02.06-.02.12,0,.17,0,.12.19.15.32.15,3.28.03,6.54-.53,9.61-1.67-.19-.68-.51-1.31-.93-1.87-.23-.28-.52-.51-.74-.79-.44-.61-.65-1.35-.59-2.1.08-.74.28-1.47.59-2.15.38-.85.84-1.67,1.37-2.43.36-.45.65-.96.86-1.49.2-.92.13-1.88-.2-2.76-.06-.27-.16-.54-.3-.78-.2-.27-.45-.5-.74-.68-1.26-.88-2.52-1.74-3.79-2.58-.87-.64-2.07-.62-2.92.04-.75.48-1.39,1.13-1.85,1.9Z"></path><path class="cls-28" d="m269.13,267.68c-.22.53-.51,1.04-.86,1.49-.48.69-.9,1.42-1.25,2.18,0,.08-.08.16-.12.25-.32.68-.52,1.4-.59,2.15v.25h0c0,.65.2,1.29.59,1.82.22.29.51.52.75.8.42.56.73,1.2.92,1.87-3.08,1.13-6.34,1.7-9.61,1.67-.13,0-.28,0-.32-.15s0-.11,0-.17c.21-.68.63-1.26,1.21-1.68.49-.31.99-.6,1.51-.86.68-.39,1.26-.91,1.72-1.54.24-.31.41-.67.51-1.04.1-.61-.01-1.25-.33-1.78-.26-.45-.57-.86-.93-1.24l-.21-.22c-.43-.47-.86-.95-1.28-1.41h0c-.33-.37-.67-.71-1.04-1.03-.27-.2-.52-.42-.77-.65-.68-.76-.97-1.79-.8-2.79.16-.99.55-1.93,1.14-2.74.48-.77,1.12-1.43,1.89-1.92,1.07-.59,1.88-.75,2.92-.04,1.26.85,2.53,1.71,3.79,2.58.29.18.54.41.74.69.14.24.25.5.3.77.31.89.35,1.86.13,2.77Z"></path><ellipse class="cls-47" cx="261.39" cy="267.16" rx="1.57" ry="1.96" transform="translate(-111.56 242.48) rotate(-41.84)"></ellipse><ellipse class="cls-47" cx="267.46" cy="266.32" rx="1.96" ry="1.31" transform="translate(-85.65 399.63) rotate(-65.56)"></ellipse><ellipse class="cls-8" cx="261.39" cy="267.16" rx="1.57" ry="1.96" transform="translate(-111.56 242.48) rotate(-41.84)"></ellipse><ellipse class="cls-25" cx="267.46" cy="266.32" rx="1.96" ry="1.31" transform="translate(-85.65 399.63) rotate(-65.56)"></ellipse><path class="cls-21" d="m267,271.35c0,.08-.08.16-.12.25-.32.68-.52,1.4-.59,2.15v.25h0c.09.92.05,1.85-.13,2.77-.03.15-.13.27-.26.34-.25.11-.53-.1-.65-.32-.27-.54-.46-1.12-.57-1.72-.42-1.36-1.26-2.55-2.4-3.39l-.21-.22c-.43-.47-.86-.95-1.28-1.41h0c.78.22,2.33.91,2.58,1.02.65.24,1.59,1.46,2.31,1.52.52.06.84-.42,1.31-1.22Z"></path><path class="cls-40" d="m265.83,271.04s.07,0,.11,0l.08-.05c.21-.12.44-.19.68-.2h0v.09c-.22.08-.43.19-.64.3-.05.06-.12.11-.19.14-.06.01-.13.01-.19,0-.16-.03-.32-.03-.48,0-.12.04-.25.06-.38.08h-.07s.02-.06.05-.06c.31-.18.67-.28,1.03-.29Z"></path><path class="cls-15" d="m267.52,279.2c.12.06.19.2.15.33"></path><path class="cls-47" d="m271.08,281.61c-.13-1.37.01-2.76.42-4.08.34-.86.93-1.6,1.32-2.45.13-.14.12-.35-.02-.47-.05-.05-.11-.08-.18-.09-5.03-1.88-10.68-.89-14.78,2.58-.53.44-.99.95-1.37,1.52-.11.15-.17.34-.16.53,0,.26.27.45.49.59.95.63,1.93,1.2,2.95,1.72,3.61,5.68,4.54,12.63,6.03,19.2.05.5.28.97.65,1.32.28.19.61.29.95.31.57.1,1.15.1,1.72,0,1.88-.43,3.02-2.46,3.15-4.39.14-1.93-1.14-14.26-1.17-16.33Z"></path><path class="cls-22" d="m272.82,275.09c-.38.86-.97,1.59-1.32,2.45-.41,1.32-.55,2.7-.42,4.08,0,2.07,1.32,14.41,1.18,16.37-.08,1.39-.7,2.69-1.72,3.63-.41.37-.91.63-1.45.75-.57.1-1.15.1-1.72,0-.34-.02-.66-.13-.95-.31-.37-.35-.6-.82-.65-1.32-1.46-6.57-2.39-13.53-6.03-19.2-1.02-.52-2-1.09-2.96-1.72-.22-.15-.46-.33-.48-.59,0-.19.05-.38.16-.53.38-.57.84-1.09,1.37-1.52,1.56-1.35,3.38-2.34,5.36-2.92h0c3.09-.93,6.39-.82,9.41.31.1.03.18.08.24.16.05.12.05.26-.02.38Z"></path><path class="cls-47" d="m269.72,282.98c.31,1.07.94,2.03,1.79,2.75,1.62,1.58,3.37,3.03,5.24,4.31.49.6,1.37.69,1.98.2.03-.03.06-.05.09-.08,2.08-1.59,3.91-3.46,5.45-5.57.18-.28.41-.53.67-.74.45-.23.93-.4,1.42-.49.48-.15.97-.5.99-1.01,0-.66-.78-1.03-1.43-1.14-.67-.18-1.38-.12-2.01.16-.52.39-.98.85-1.36,1.38-.7.64-1.51,1.14-2.39,1.47-1.2.54-1.58,2.19-2.83,1.77-1.72-.55-3.36-3.52-4.47-4.75-.53-.59-1.15-1.18-1.95-.86-.95.49-1.44,1.55-1.21,2.59Z"></path><path class="cls-47" d="m272.82,275.09c-.39.86-.97,1.59-1.32,2.45-.23.61-.36,1.25-.4,1.9-.87-.06-1.74,0-2.58.18-1.49.16-2.97.33-4.45.49-.81.06-1.6.21-2.38.45-.93-.49-1.83-1.02-2.7-1.6-.23-.13-.4-.35-.47-.61,0-.19.05-.38.17-.53.37-.58.83-1.09,1.36-1.52.96-.83,2.02-1.54,3.17-2.08h0c3.08-.93,6.38-.82,9.4.31.1.03.19.08.25.16.05.14.03.29-.05.41Z"></path><path class="cls-47" d="m271.07,280.17v1.44c.06,4.09.93,6.32,1.24,10.4.12,1.68-.28,3.74,1.28,4.65s3.97,3.06,5.79,3.78c1.34.45,2.58,1.17,3.64,2.11,1.07,1.21,1.85,2.65,2.27,4.2.82,2.49,1.4,5.06,1.72,7.67.2,1.59.4,3.36,1.65,4.35.86.65,2.17,1.15,2.01,2.18-1.47.52-3.06.61-4.57.26-.44-.08-.84-.27-1.19-.54-.47-.54-.74-1.21-.78-1.92-.42-2.33-1.09-4.62-1.98-6.81-.37-.99-.87-1.92-1.5-2.77-1.72-2.22-4.64-3.13-7.36-3.91-1.98-.57-2.21.17-1.65,1.99.46,1.48,1.24,2.83,1.64,4.31.71,2.58.22,5.38,0,8.09-.22,2.71.05,5.67,1.87,7.69.82.91,2.01,1.72,1.97,2.99.02.25-.09.5-.28.65-.23.11-.49.13-.73.06-1.46-.28-2.87-.77-4.19-1.47-1.24-.56-2.26-1.53-2.88-2.75-.26-.69-.39-1.42-.38-2.15-.06-2.86.86-5.75.27-8.55-.52-2.58-2.21-4.76-3.45-7.09-1.26-2.09-1.57-4.62-.86-6.96.86-2.46.53-4.57.35-7.12-.28-4.45-.22-9.25-2.49-13.25l7.71-1.25c.32-.02.62-.11.9-.27Z"></path><path class="cls-34" d="m256.8,263.34c-.09,1.31,0,2.76-.8,3.79-.93,1.18-2.66,1.3-4.15,1.14-.18-.02-.35-.06-.51-.14-.2-.13-.36-.31-.45-.53-.86-1.77-.09-3.88.86-5.59.59-1.1,1.32-2.12,2.15-3.05,1.52-1.65,4.31-3.58,6.64-3.45-.17,1.13-1.77,2.28-2.36,3.32-.79,1.38-1.26,2.93-1.39,4.51Z"></path><path class="cls-34" d="m253.09,269.53c-.83.7-1.15,1.84-.82,2.88.16.39.38.75.65,1.08.58.77,1.21,1.51,1.87,2.21.22.28.52.48.86.58.48.03.94-.21,1.19-.63.28-.38.44-.86.73-1.21.23-.24.43-.5.62-.78.15-.35.21-.74.16-1.12-.2-2.47-2.98-4.95-5.26-3.02Z"></path><path class="cls-47" d="m257.59,288.32c-.28,2.4,1.21,4.72,3.19,6.11,2.06,1.25,4.33,2.13,6.69,2.58.34.12.71.14,1.07.07.21-.07.4-.18.57-.33.48-.32.9-.72,1.23-1.18.34-.48.38-1.1.11-1.62-.43-.51-1.06-.82-1.72-.86-1.36-.27-2.7-.65-4.01-1.14-1.14-.58-2.14-1.41-2.92-2.42-1.02-1.45,2.45-2.86,2.94-4.56.55-1.84-.44-4.09-2.16-3.32-2.64,1.28-4.5,3.77-4.99,6.66Z"></path><circle class="cls-11" cx="262.71" cy="266.32" r="13.15" transform="translate(-42.25 482.98) rotate(-80.78)"></circle><path class="cls-36" d="m260.01,261.88c-.59.82-.98,1.76-1.15,2.75-.17,1,.13,2.03.8,2.78.23.24.52.44.77.65.38.33.73.69,1.07,1.07l1.33,1.45c.44.44.82.93,1.14,1.46.32.54.43,1.17.33,1.79-.1.38-.27.73-.51,1.03-.46.63-1.05,1.16-1.72,1.54-.52.26-1.02.55-1.51.86-.57.42-.99,1-1.21,1.67-.02.06-.02.12,0,.18.04.12.2.14.32.14,3.28.03,6.54-.53,9.61-1.67-.19-.67-.51-1.31-.93-1.87-.23-.28-.52-.51-.74-.79-.44-.61-.65-1.35-.59-2.1.08-.74.28-1.46.59-2.14.38-.85.84-1.67,1.37-2.44.36-.45.65-.95.86-1.49.2-.92.13-1.87-.2-2.75-.06-.27-.16-.53-.29-.78-.2-.27-.46-.5-.75-.68-1.26-.86-2.52-1.72-3.79-2.58-.87-.63-2.06-.61-2.91.05-.77.46-1.42,1.1-1.9,1.85Z"></path><path class="cls-45" d="m269.84,266.73c-.21.54-.5,1.04-.86,1.49-.48.69-.9,1.42-1.25,2.18-.04.09-.08.17-.11.25-.32.68-.53,1.4-.6,2.15v.28c0,.65.2,1.29.59,1.82.22.28.51.52.75.79.42.56.73,1.2.92,1.87-3.09,1.13-6.35,1.68-9.64,1.64-.12,0-.28,0-.32-.14-.02-.06-.02-.12,0-.18.22-.67.64-1.25,1.21-1.67.47-.34,1.01-.56,1.51-.86.68-.38,1.27-.91,1.72-1.54.24-.31.41-.66.51-1.03.1-.62-.01-1.25-.33-1.79-.26-.45-.58-.86-.93-1.24-.06-.05-.12-.1-.18-.16l-1.29-1.41h0c-.32-.37-.67-.71-1.03-1.04-.27-.2-.53-.42-.78-.65-.67-.76-.97-1.78-.8-2.78.17-.99.55-1.93,1.14-2.75.47-.77,1.12-1.43,1.89-1.91,1.08-.59,1.88-.76,2.92-.05,1.28.86,2.53,1.72,3.79,2.58.56.29.95.83,1.04,1.45.3.88.35,1.82.14,2.72Z"></path><ellipse class="cls-43" cx="262.1" cy="266.22" rx="1.57" ry="1.96" transform="translate(-110.75 242.72) rotate(-41.84)"></ellipse><ellipse class="cls-42" cx="268.18" cy="265.37" rx="1.96" ry="1.31" transform="translate(-84.37 399.72) rotate(-65.56)"></ellipse><ellipse class="cls-16" cx="262.1" cy="266.22" rx="1.57" ry="1.96" transform="translate(-110.75 242.72) rotate(-41.84)"></ellipse><ellipse class="cls-27" cx="268.18" cy="265.37" rx="1.96" ry="1.31" transform="translate(-84.37 399.72) rotate(-65.56)"></ellipse><path class="cls-6" d="m267.72,270.4c-.04.09-.08.17-.11.25-.32.68-.53,1.4-.6,2.15v.28c.09.92.05,1.85-.12,2.77-.04.14-.13.26-.26.34-.26.11-.53-.1-.65-.32-.27-.55-.46-1.13-.57-1.72-.42-1.36-1.26-2.55-2.4-3.4-.06-.05-.12-.1-.17-.16l-1.29-1.41h0c.78.21,2.33.86,2.58,1.01.65.24,1.59,1.46,2.31,1.53.49-.02.82-.51,1.28-1.31Z"></path><path class="cls-17" d="m266.54,270.09s.08.01.11,0l.08-.04c.2-.13.44-.2.68-.21h.04v.08c-.2.13-.46.16-.64.31s-.11.11-.19.13c-.06.01-.13.01-.19,0-.16-.03-.32-.03-.48,0-.12.05-.25.07-.38.08,0,0-.07,0-.07-.04s0-.04.06-.05c.3-.16.63-.24.97-.25Z"></path><path class="cls-26" d="m268.23,278.22c.12.05.19.19.15.32"></path><path class="cls-38" d="m271.8,280.66c-.13-1.37.02-2.75.42-4.07.34-.86.94-1.61,1.32-2.46.13-.14.12-.35-.02-.47-.05-.05-.11-.08-.18-.09-5.03-1.87-10.68-.88-14.78,2.58-.53.44-.99.96-1.36,1.53-.12.15-.18.34-.17.53,0,.27.27.45.49.59.95.63,1.93,1.21,2.95,1.72,3.61,5.68,4.54,12.63,6.03,19.2.05.51.28.98.65,1.33.29.18.62.29.96.31.57.1,1.15.1,1.72,0,1.88-.44,3.02-2.46,3.15-4.39s-1.15-14.26-1.18-16.33Z"></path><path class="cls-48" d="m273.54,274.15c-.38.86-.97,1.59-1.32,2.45-.4,1.32-.55,2.7-.42,4.07,0,2.07,1.32,14.41,1.18,16.37-.08,1.39-.7,2.69-1.72,3.63-.41.37-.91.63-1.46.76-.57.1-1.15.1-1.72,0-.34-.02-.67-.12-.96-.31-.37-.35-.6-.82-.65-1.33-1.46-6.57-2.4-13.52-6.03-19.2-1.01-.52-2-1.09-2.95-1.72-.22-.15-.47-.33-.49-.59,0-.19.06-.38.17-.53.38-.57.83-1.09,1.36-1.52,1.56-1.35,3.38-2.34,5.36-2.91h0c3.08-.93,6.39-.83,9.41.3.1.03.18.08.24.16.06.13.05.27,0,.4Z"></path><path class="cls-1" d="m270.43,282.03c.31,1.08.93,2.04,1.79,2.76,1.62,1.59,3.37,3.03,5.24,4.31.4.36.93.53,1.46.47.22-.07.43-.19.6-.34,2.08-1.58,3.92-3.46,5.45-5.57.18-.28.41-.53.67-.74.45-.23.93-.39,1.42-.48.48-.16.97-.51.99-1.01,0-.67-.78-1.03-1.43-1.15-.67-.18-1.38-.12-2.01.16-.52.39-.98.86-1.36,1.39-.7.64-1.51,1.13-2.39,1.46-1.2.55-1.57,2.19-2.83,1.78-1.72-.55-3.36-3.53-4.47-4.75-.53-.59-1.15-1.19-1.95-.86-.93.49-1.42,1.55-1.2,2.58Z"></path><path class="cls-32" d="m273.54,274.15c-.39.86-.97,1.59-1.32,2.45-.23.61-.37,1.25-.4,1.9-.87-.06-1.74,0-2.58.17l-4.45.49c-.81.07-1.6.22-2.38.45-.92-.49-1.83-1.02-2.7-1.59-.24-.12-.42-.34-.49-.59,0-.19.06-.38.17-.53.38-.57.84-1.08,1.36-1.52.96-.83,2.02-1.53,3.17-2.08h0c3.08-.93,6.39-.83,9.41.3.1.03.18.08.24.16.06.13.05.28-.03.4Z"></path><path class="cls-19" d="m271.79,279.2v1.44c.07,4.08.94,6.32,1.24,10.4.13,1.67-.28,3.74,1.28,4.64s3.97,3.07,5.79,3.78c1.34.45,2.58,1.17,3.64,2.11,1.07,1.21,1.85,2.65,2.27,4.21.83,2.49,1.4,5.06,1.72,7.67.2,1.58.4,3.36,1.65,4.31.86.65,2.17,1.15,2.01,2.19-1.47.52-3.06.61-4.57.25-.44-.07-.85-.26-1.19-.54-.46-.54-.74-1.21-.78-1.92-.43-2.34-1.1-4.63-2-6.83-.37-.99-.88-1.92-1.51-2.77-1.72-2.22-4.64-3.13-7.36-3.91-1.98-.58-2.21.17-1.65,1.99.46,1.47,1.24,2.83,1.65,4.31.7,2.58.21,5.38,0,8.09-.21,2.71.06,5.68,1.87,7.69.82.91,2.01,1.72,1.98,2.98.01.25-.1.49-.29.65-.23.11-.49.13-.73.06-1.46-.28-2.87-.77-4.19-1.47-1.24-.56-2.26-1.53-2.88-2.75-.26-.68-.39-1.41-.38-2.15-.06-2.86.86-5.75.27-8.56-.52-2.58-2.2-4.75-3.45-7.09-1.26-2.09-1.57-4.62-.86-6.96.86-2.46.53-4.57.36-7.12-.29-4.45-.23-9.25-2.5-13.24l7.71-1.26c.32,0,.63-.07.91-.22Z"></path><path class="cls-4" d="m257.49,262.41c-.09,1.31,0,2.76-.8,3.79-.92,1.17-2.66,1.29-4.15,1.13-.18,0-.35-.05-.51-.13-.2-.13-.36-.32-.45-.53-.86-1.77-.09-3.89.86-5.59.6-1.1,1.32-2.13,2.15-3.06,1.52-1.65,4.31-3.58,6.64-3.45-.17,1.13-1.77,2.27-2.36,3.31-.79,1.39-1.26,2.94-1.39,4.53Z"></path><path class="cls-18" d="m253.81,268.59c-.85.69-1.19,1.83-.86,2.87.16.39.38.75.65,1.08.58.77,1.21,1.52,1.87,2.22.22.28.52.48.86.58.48.02.94-.22,1.19-.63.28-.39.44-.86.73-1.21.23-.24.44-.5.62-.78.15-.35.21-.74.16-1.12-.16-2.47-2.95-4.95-5.22-3.01Z"></path><path class="cls-23" d="m258.31,287.37c-.28,2.4,1.21,4.72,3.19,6.11,2.06,1.26,4.33,2.13,6.7,2.58.55.26,1.2.16,1.64-.26.48-.31.89-.71,1.22-1.17.33-.48.38-1.1.11-1.62-.43-.51-1.05-.82-1.72-.86-1.36-.27-2.7-.65-4.01-1.14-1.15-.58-2.15-1.41-2.93-2.43-1.02-1.44,2.45-2.85,2.95-4.55.54-1.85-.45-4.09-2.17-3.32-2.64,1.28-4.49,3.76-4.98,6.65Z"></path></g></svg>